<?xml version="1.0" encoding="UTF-8" standalone="no"?>
<!-- Generator: Adobe Illustrator 22.0.0, SVG Export Plug-In . SVG Version: 6.00 Build 0)  -->

<svg
   xmlns:dc="http://purl.org/dc/elements/1.1/"
   xmlns:cc="http://creativecommons.org/ns#"
   xmlns:rdf="http://www.w3.org/1999/02/22-rdf-syntax-ns#"
   xmlns:svg="http://www.w3.org/2000/svg"
   xmlns="http://www.w3.org/2000/svg"
   xmlns:sodipodi="http://sodipodi.sourceforge.net/DTD/sodipodi-0.dtd"
   xmlns:inkscape="http://www.inkscape.org/namespaces/inkscape"
   version="1.1"
   id="Layer_1"
   x="0px"
   y="0px"
   viewBox="0 0 145 145"
   xml:space="preserve"
   sodipodi:docname="bitcoinprivate.svg"
   inkscape:version="0.92.2 (5c3e80d, 2017-08-06)"
   width="145"
   height="145"><metadata
     id="metadata12"><rdf:RDF><cc:Work
         rdf:about=""><dc:format>image/svg+xml</dc:format><dc:type
           rdf:resource="http://purl.org/dc/dcmitype/StillImage" /><dc:title></dc:title></cc:Work></rdf:RDF></metadata><defs
     id="defs10" /><sodipodi:namedview
     pagecolor="#ffffff"
     bordercolor="#666666"
     borderopacity="1"
     objecttolerance="10"
     gridtolerance="10"
     guidetolerance="10"
     inkscape:pageopacity="0"
     inkscape:pageshadow="2"
     inkscape:window-width="1299"
     inkscape:window-height="705"
     id="namedview8"
     showgrid="false"
     inkscape:snap-to-guides="true"
     inkscape:zoom="0.43053817"
     inkscape:cx="399.5"
     inkscape:cy="72.5"
     inkscape:window-x="67"
     inkscape:window-y="27"
     inkscape:window-maximized="1"
     inkscape:current-layer="Layer_1"
     inkscape:pagecheckerboard="false" /><style
     type="text/css"
     id="style2">
	.st0{fill:#272F5F;}
	.st1{fill:#7DA0D1;}
</style><path
     id="Fill-4"
     class="st0"
     d="M 142.1,90.2 C 132.5,128.8 93.4,152.3 54.9,142.7 16.4,133 -7.1,93.9 2.5,55.3 12.1,16.7 51.2,-6.8 89.7,2.9 c 38.6,9.6 62,48.7 52.4,87.3 z M 98,81.9 c -2.7,0.5 -4,0.6 -6.8,0.8 -1.2,0.1 -2.5,0.2 -3.8,0.2 3.6,2.5 5.9,5.9 4.7,10.6 -2.2,8.8 -13.7,7.6 -22.2,5.7 L 67.1,111 v 0 l -0.1,0.5 -3.7,15.3 9.6,2.4 4,-16 c 16.4,3.1 28.8,1.9 34,-13 3.2,-9.2 0.9,-16.4 -4.1,-20.8 -0.1,0.1 -0.2,0.1 -0.3,0.1 -2.5,0.9 -5.8,2 -8.5,2.4 z M 95.2,62.5 c -2.7,10.9 -19.5,5.4 -24.9,4 l 4.8,-19.2 c 5.4,1.3 22.9,3.8 20.1,15.2 M 98.8,24.7 89.2,22.3 85.4,37.7 C 82.9,37.1 80.3,36.5 77.7,35.9 L 81.6,20.4 72,18 68,33.8 C 65.9,33.3 63.8,32.9 61.9,32.4 L 48.5,29 46,39.3 c 0,0 7.1,1.6 7,1.7 3.9,1 4.6,3.6 4.5,5.6 L 54.6,58.2 52.1,68.3 46.7,90 c -0.5,1.2 -1.7,3 -4.4,2.3 0.1,0.1 -7,-1.7 -7,-1.7 l -4.8,11 12.5,3.1 c 2.3,0.6 4.6,1.2 6.9,1.8 l -4,16 9.6,2.4 3.9,-15.9 3.1,-11.6 5.3,-21.2 c 1.1,0.3 2.2,0.5 3.5,0.8 3.9,0.9 8,1.2 11.9,1.5 2.4,0.2 4.9,0.3 7.3,0.3 3.6,0 7.4,-0.7 10.8,-1.9 2.9,-1 6.3,-2.2 8.5,-4.5 2.5,-2.7 3.8,-6.2 4.3,-9.8 1.7,-11.7 -7.1,-18 -19.3,-22.2 z"
     inkscape:connector-curvature="0"
     style="fill:#272f5f" /></svg>