<?xml version="1.0" encoding="UTF-8" standalone="no"?>
<!-- Created with Inkscape (http://www.inkscape.org/) -->

<svg
   xmlns:dc="http://purl.org/dc/elements/1.1/"
   xmlns:cc="http://creativecommons.org/ns#"
   xmlns:rdf="http://www.w3.org/1999/02/22-rdf-syntax-ns#"
   xmlns:svg="http://www.w3.org/2000/svg"
   xmlns="http://www.w3.org/2000/svg"
   xmlns:sodipodi="http://sodipodi.sourceforge.net/DTD/sodipodi-0.dtd"
   xmlns:inkscape="http://www.inkscape.org/namespaces/inkscape"
   width="19.897329"
   height="31.64533"
   viewBox="0 0 5.2645017 8.3728267"
   version="1.1"
   id="svg719"
   inkscape:version="0.92.0 r15299"
   sodipodi:docname="bitshares.svg">
  <defs
     id="defs713">
    <clipPath
       id="clipPath188"
       clipPathUnits="userSpaceOnUse">
      <path
         inkscape:connector-curvature="0"
         id="path186"
         d="m 52.337,828.165 c 0,-0.009 0.018,-7.769 0.018,-7.951 v 0 c 1.225,-1.218 5.075,-5.063 5.717,-5.712 v 0 c 0.279,0.155 0.566,0.294 0.905,0.363 v 0 7.441 z" />
    </clipPath>
    <clipPath
       id="clipPath178"
       clipPathUnits="userSpaceOnUse">
      <path
         inkscape:connector-curvature="0"
         id="path176"
         d="m 59.999,809.752 v -4.571 c 1.615,0.105 3.075,0.757 4.213,1.75 v 0 l -3.215,3.23 c -0.313,-0.209 -0.643,-0.339 -0.998,-0.409" />
    </clipPath>
    <clipPath
       id="clipPath168"
       clipPathUnits="userSpaceOnUse">
      <path
         inkscape:connector-curvature="0"
         id="path166"
         d="m 54.763,806.931 c 1.138,-0.993 2.598,-1.637 4.214,-1.75 v 0 4.571 c -0.365,0.07 -0.687,0.2 -0.965,0.409 v 0 z" />
    </clipPath>
    <clipPath
       id="clipPath158"
       clipPathUnits="userSpaceOnUse">
      <path
         inkscape:connector-curvature="0"
         id="path156"
         d="m 61.53,813.833 c 0.192,-0.304 0.331,-0.643 0.41,-0.991 v 0 h 4.57 c -0.104,1.608 -0.749,3.058 -1.75,4.214 v 0 z" />
    </clipPath>
    <clipPath
       id="clipPath148"
       clipPathUnits="userSpaceOnUse">
      <path
         inkscape:connector-curvature="0"
         id="path146"
         d="m 61.898,811.821 c -0.086,-0.334 -0.197,-0.626 -0.368,-0.891 v 0 l 3.187,-3.195 c 0.948,1.122 1.545,2.527 1.665,4.086 v 0 z" />
    </clipPath>
    <clipPath
       id="clipPath138"
       clipPathUnits="userSpaceOnUse">
      <path
         inkscape:connector-curvature="0"
         id="path136"
         d="m 59.871,814.784 c 0.364,-0.07 0.686,-0.2 0.964,-0.409 v 0 l 3.25,3.229 c -1.139,0.993 -2.599,1.637 -4.214,1.751 v 0 z" />
    </clipPath>
    <clipPath
       id="clipPath128"
       clipPathUnits="userSpaceOnUse">
      <path
         inkscape:connector-curvature="0"
         id="path126"
         d="m 52.337,811.821 c 0.104,-1.608 0.749,-3.058 1.75,-4.214 v 0 l 3.229,3.224 c -0.182,0.304 -0.33,0.633 -0.391,0.99 v 0 z" />
    </clipPath>
    <clipPath
       id="clipPath118"
       clipPathUnits="userSpaceOnUse">
      <path
         inkscape:connector-curvature="0"
         id="path116"
         d="m 52.337,812.842 h 4.555 c 0.078,0.352 0.226,0.686 0.424,0.969 v 0 l -4.979,4.905 z" />
    </clipPath>
  </defs>
  <sodipodi:namedview
     id="base"
     pagecolor="#ffffff"
     bordercolor="#666666"
     borderopacity="1.0"
     inkscape:pageopacity="0.0"
     inkscape:pageshadow="2"
     inkscape:zoom="17.392534"
     inkscape:cx="9.4486665"
     inkscape:cy="15.322666"
     inkscape:document-units="mm"
     inkscape:current-layer="layer1"
     showgrid="false"
     fit-margin-top="0"
     fit-margin-left="0"
     fit-margin-right="0"
     fit-margin-bottom="0"
     units="px"
     inkscape:window-width="1280"
     inkscape:window-height="744"
     inkscape:window-x="-4"
     inkscape:window-y="-4"
     inkscape:window-maximized="1" />
  <metadata
     id="metadata716">
    <rdf:RDF>
      <cc:Work
         rdf:about="">
        <dc:format>image/svg+xml</dc:format>
        <dc:type
           rdf:resource="http://purl.org/dc/dcmitype/StillImage" />
        <dc:title></dc:title>
      </cc:Work>
    </rdf:RDF>
  </metadata>
  <g
     inkscape:label="Layer 1"
     inkscape:groupmode="layer"
     id="layer1"
     transform="translate(-78.386945,-161.90154)">
    <g
       id="g829"
       transform="translate(0.13229104,-0.13228651)">
      <g
         transform="matrix(0.35277777,0,0,-0.35277777,59.923615,454.32432)"
         id="g112">
        <g
           id="g114"
           clip-path="url(#clipPath118)">
          <path
             d="m 51.699,819.354 h 6.257 v -7.15 h -6.257 z"
             style="fill:#00a9e0;fill-opacity:1;fill-rule:nonzero;stroke:none"
             id="path120"
             inkscape:connector-curvature="0" />
        </g>
      </g>
      <g
         transform="matrix(0.35277777,0,0,-0.35277777,59.923615,454.32432)"
         id="g122">
        <g
           id="g124"
           clip-path="url(#clipPath128)">
          <path
             d="m 51.699,812.459 h 6.257 v -5.491 h -6.257 z"
             style="fill:#00a9e0;fill-opacity:1;fill-rule:nonzero;stroke:none"
             id="path130"
             inkscape:connector-curvature="0" />
        </g>
      </g>
      <g
         transform="matrix(0.35277777,0,0,-0.35277777,59.923615,454.32432)"
         id="g132">
        <g
           id="g134"
           clip-path="url(#clipPath138)">
          <path
             d="m 59.232,819.993 h 5.491 v -6.257 h -5.491 z"
             style="fill:#00a9e0;fill-opacity:1;fill-rule:nonzero;stroke:none"
             id="path140"
             inkscape:connector-curvature="0" />
        </g>
      </g>
      <g
         transform="matrix(0.35277777,0,0,-0.35277777,59.923615,454.32432)"
         id="g142">
        <g
           id="g144"
           clip-path="url(#clipPath148)">
          <path
             d="m 60.892,812.459 h 6.129 v -5.363 h -6.129 z"
             style="fill:#00a9e0;fill-opacity:1;fill-rule:nonzero;stroke:none"
             id="path150"
             inkscape:connector-curvature="0" />
        </g>
      </g>
      <g
         transform="matrix(0.35277777,0,0,-0.35277777,59.923615,454.32432)"
         id="g152">
        <g
           id="g154"
           clip-path="url(#clipPath158)">
          <path
             d="m 60.892,817.694 h 6.257 v -5.491 h -6.257 z"
             style="fill:#00a9e0;fill-opacity:1;fill-rule:nonzero;stroke:none"
             id="path160"
             inkscape:connector-curvature="0" />
        </g>
      </g>
      <g
         transform="matrix(0.35277777,0,0,-0.35277777,59.923615,454.32432)"
         id="g162">
        <g
           id="g164"
           clip-path="url(#clipPath168)">
          <path
             d="m 54.125,810.799 h 5.491 v -6.257 h -5.491 z"
             style="fill:#00a9e0;fill-opacity:1;fill-rule:nonzero;stroke:none"
             id="path170"
             inkscape:connector-curvature="0" />
        </g>
      </g>
      <g
         transform="matrix(0.35277777,0,0,-0.35277777,59.923615,454.32432)"
         id="g172">
        <g
           id="g174"
           clip-path="url(#clipPath178)">
          <path
             d="m 59.36,810.799 h 5.491 v -6.257 H 59.36 Z"
             style="fill:#00a9e0;fill-opacity:1;fill-rule:nonzero;stroke:none"
             id="path180"
             inkscape:connector-curvature="0" />
        </g>
      </g>
      <g
         transform="matrix(0.35277777,0,0,-0.35277777,59.923615,454.32432)"
         id="g182">
        <g
           id="g184"
           clip-path="url(#clipPath188)">
          <path
             d="m 51.699,828.803 h 7.917 v -14.939 h -7.917 z"
             style="fill:#00a9e0;fill-opacity:1;fill-rule:nonzero;stroke:none"
             id="path190"
             inkscape:connector-curvature="0" />
        </g>
      </g>
    </g>
  </g>
</svg>
