<?xml version="1.0" encoding="utf-8"?>
<!-- Generator: Adobe Illustrator 16.0.2, SVG Export Plug-In . SVG Version: 6.00 Build 0)  -->
<!DOCTYPE svg PUBLIC "-//W3C//DTD SVG 1.1//EN" "http://www.w3.org/Graphics/SVG/1.1/DTD/svg11.dtd">
<svg version="1.1" id="Ebene_1" xmlns="http://www.w3.org/2000/svg" xmlns:xlink="http://www.w3.org/1999/xlink" x="0px" y="0px"
	 width="141.73px" height="141.73px" viewBox="0 0 141.73 141.73" enable-background="new 0 0 141.73 141.73" xml:space="preserve">
<g>
	<path fill="#1D1D1B" d="M70.743,139.08c-1.857,0-3.885-0.198-6.169-1.65C33.778,117.884,11.925,86.17,4.621,50.42
		c-1.549-7.559-2.454-15.297-2.678-23c-0.062-1.825,0.303-3.316,1.188-4.838c1.118-1.945,2.591-2.84,4.012-3.599
		C26.614,8.613,48.581,3.13,70.66,3.13c14.758,0,29.324,2.393,43.287,7.117c6.938,2.336,13.742,5.274,20.246,8.736
		c1.41,0.755,2.884,1.645,4.005,3.589c0.881,1.531,1.259,3.023,1.197,4.839c-1.115,37.092-17.692,72.48-45.474,97.087
		c-5.334,4.733-11.105,9.086-17.168,12.938C74.593,138.8,72.794,139.08,70.743,139.08z"/>
	<path fill="#67B2E8" d="M101.904,104.457c1.549-3.38,2.044-8.335,2.044-12.433c0-10.559-5.134-20.708-13.577-25.766
		c-0.269-0.165-0.544-0.325-0.825-0.477c0-0.008-0.007-0.008-0.015-0.013c-8.411-5.065-16.796-11.675-16.796-22.21
		c0-15.995,12.965-28.958,28.964-28.958c3.275-0.006,6.481,0.287,9.406,1.285l0.007,0.005c6.132,2.068,12.139,4.659,17.947,7.749
		c1.204,0.642,2.065,1.222,2.753,2.407c0.612,1.055,0.825,2.002,0.784,3.207c-0.86,28.593-12.257,54.219-29.571,75.953
		c0,0-0.866,0.902-1.225,0.636C101.389,105.535,101.904,104.457,101.904,104.457z"/>
	<path fill="#F7A800" d="M93.805,13.638c-14.671,1.432-28.819,15.281-28.819,29.92c0,10.554-1.954,19.79-10.391,24.854
		c-0.264,0.164-0.544,0.326-0.826,0.475c-4.16,2.317-8.956,3.637-14.06,3.637c-13.928,0-25.719-9.754-28.51-22.844l-0.011-0.023
		c-1.362-6.66-2.164-13.481-2.377-20.401c-0.034-1.202,0.179-2.155,0.785-3.203c0.681-1.192,1.548-1.772,2.759-2.414
		C37.708,10.135,66.672,6.355,94.066,12.303c0,0,1.238,0.237,1.197,0.688C95.216,13.495,93.805,13.638,93.805,13.638z"/>
	<path fill="#00C4B3" d="M18.178,66.801c5.632,7.641,15.243,13.127,24.48,13.127c5.104,0,9.9-1.321,14.063-3.639
		c0.283-0.151,0.558-0.312,0.826-0.476c8.809-5.828,20.474-6.89,27.19-3.375c0,0.006,0.009,0.006,0.013,0.012
		c0.275,0.166,0.551,0.326,0.83,0.478c8.439,5.056,14.088,14.301,14.088,24.86c0,8.518-3.585,16.276-9.429,21.563l0.028,0.025
		c-4.739,4.208-9.822,8.042-15.241,11.483c-1.417,0.9-2.56,1.141-4.252,1.141c-1.692,0-2.974-0.24-4.397-1.148
		c-23.631-14.997-40.959-37.6-49.534-63.555c0,0-0.41-1.317-0.028-1.471C17.2,65.673,18.178,66.801,18.178,66.801z"/>
</g>
</svg>
