<?xml version="1.0" standalone="no"?>
<!DOCTYPE svg PUBLIC "-//W3C//DTD SVG 20010904//EN"
 "http://www.w3.org/TR/2001/REC-SVG-20010904/DTD/svg10.dtd">
<svg version="1.0" xmlns="http://www.w3.org/2000/svg"
 width="80.000000pt" height="80.000000pt" viewBox="0 0 80.000000 80.000000"
 preserveAspectRatio="xMidYMid meet">

<g transform="translate(0.000000,80.000000) scale(0.100000,-0.100000)"
fill="#000000" stroke="none">
<path d="M305 697 c-50 -30 -112 -66 -140 -82 l-49 -28 39 -14 c39 -13 39 -13
144 47 l104 60 103 -61 c101 -59 104 -60 139 -48 19 7 35 15 35 19 0 5 -257
153 -275 158 -5 1 -50 -22 -100 -51z" fill="#3fbceb"/>
<path d="M106 382 c1 -103 4 -189 5 -192 2 -3 67 32 145 78 77 45 145 82 150
82 5 -1 72 -38 149 -84 l140 -84 3 191 c1 104 1 191 -1 193 -2 2 -22 -4 -45
-13 l-42 -16 0 -103 0 -103 -104 60 -104 61 -104 -62 -103 -61 -3 105 -3 104
-40 16 c-21 9 -40 16 -42 16 -1 0 -1 -84 -1 -188z" fill="#1168ac"/>
<path d="M216 221 c-14 -8 -26 -18 -26 -21 0 -6 190 -117 208 -122 11 -3 222
113 222 122 0 3 -13 12 -28 21 -28 15 -30 15 -103 -27 -41 -24 -78 -43 -84
-43 -5 -1 -44 19 -86 43 -74 42 -77 43 -103 27z" fill="#3fbceb"/>
</g>
</svg>
